<svg width="57" height="39" viewBox="0 0 57 39" fill="none" xmlns="http://www.w3.org/2000/svg">
<path fill-rule="evenodd" clip-rule="evenodd" d="M56.5 25.4745C56.5 32.4702 50.802 38.1411 43.7728 38.1411C36.7437 38.1411 31.0457 32.4702 31.0457 25.4745C31.0457 18.5646 36.6074 12.9507 43.5174 12.8144C40.3041 9.67811 35.9032 7.74107 31.0457 7.74107V0.141113C45.1033 0.141113 56.5 11.4838 56.5 25.4745ZM0.5 0.14133C14.5576 0.14133 25.9543 11.4838 25.9543 25.4745C25.9543 32.4702 20.2559 38.1411 13.2272 38.1411C6.19805 38.1411 0.5 32.4702 0.5 25.4745C0.5 18.5646 6.06174 12.9507 12.9717 12.8144C9.75848 9.67811 5.35706 7.74107 0.5 7.74107V0.14133Z" fill="#C9C9CA"/>
</svg>
