<svg width="57" height="39" viewBox="0 0 57 39" fill="none" xmlns="http://www.w3.org/2000/svg">
<path fill-rule="evenodd" clip-rule="evenodd" d="M0.5 25.4745C0.5 32.4702 6.19804 38.1411 13.2272 38.1411C20.2563 38.1411 25.9543 32.4702 25.9543 25.4745C25.9543 18.5646 20.3926 12.9507 13.4826 12.8144C16.6959 9.67811 21.0968 7.74107 25.9543 7.74107V0.141113C11.8967 0.141113 0.5 11.4836 0.5 25.4743V25.4745ZM56.5 0.14133C42.4424 0.14133 31.0457 11.4838 31.0457 25.4745C31.0457 32.4702 36.7441 38.1411 43.7728 38.1411C50.802 38.1411 56.5 32.4702 56.5 25.4745C56.5 18.5646 50.9383 12.9507 44.0283 12.8144C47.2415 9.67811 51.6429 7.74107 56.5 7.74107V0.14133Z" fill="#C9C9CA"/>
</svg>
