<svg width="52" height="52" viewBox="0 0 52 52" fill="none" xmlns="http://www.w3.org/2000/svg">
<path d="M24.8932 0.0126686C11.4143 0.42141 0.562732 11.2734 0.153518 24.7521C-0.296102 39.4154 11.803 51.5244 26.4767 51.075C39.9556 50.6663 50.8072 39.8143 51.2164 26.3356C51.666 11.662 39.5566 -0.44699 24.8932 0.0126686ZM18.8846 20.0209L24.2596 25.3959C25.0465 26.1827 26.3033 26.1827 27.0902 25.3959L32.4856 20.0209C33.2725 19.2341 34.5294 19.2341 35.3162 20.0209C36.1031 20.8078 36.1031 22.0646 35.3162 22.8515L27.0902 31.0774C26.3034 31.8642 25.0465 31.8642 24.2596 31.0774L20.1568 26.9644L16.0541 22.8515C15.2672 22.0646 15.2672 20.8078 16.0541 20.0209C16.8307 19.2341 18.0978 19.2341 18.8846 20.0209Z" fill="#7D7D7D"/>
</svg>
