<svg width="52" height="52" viewBox="0 0 52 52" fill="none" xmlns="http://www.w3.org/2000/svg">
<path d="M26.476 51.6865C39.9548 51.2778 50.8064 40.4258 51.2156 26.9472C51.6652 12.2839 39.5661 0.17482 24.8924 0.624199C11.4136 1.03294 0.561969 11.8849 0.152756 25.3636C-0.296865 40.0372 11.8125 52.1462 26.476 51.6865ZM32.4845 31.6783L27.1095 26.3034C26.3227 25.5165 25.0658 25.5165 24.2789 26.3034L18.8835 31.6783C18.0967 32.4651 16.8398 32.4651 16.0529 31.6783C15.2661 30.8915 15.2661 29.6346 16.0529 28.8477L24.2789 20.6218C25.0658 19.835 26.3227 19.835 27.1095 20.6218L31.2123 24.7348L35.3151 28.8477C36.1019 29.6346 36.1019 30.8915 35.3151 31.6783C34.5385 32.4651 33.2714 32.4651 32.4845 31.6783Z" fill="#7D7D7D"/>
</svg>
