<svg width="64" height="56" viewBox="0 0 64 56" fill="none" xmlns="http://www.w3.org/2000/svg">
<path d="M31.8368 0.0036354C30.6479 0.0569859 29.5686 0.715316 28.9763 1.74811L1.20568 49.8595C0.587367 50.9372 0.590477 52.263 1.21399 53.3374C1.8375 54.4119 2.98695 55.0724 4.22935 55.0698H59.7706C61.0129 55.0724 62.1623 54.412 62.7859 53.3374C63.4094 52.263 63.4125 50.9373 62.7942 49.8595L35.001 1.74811C34.6843 1.19541 34.2218 0.740337 33.6637 0.432509C33.1062 0.125215 32.4743 -0.0236255 31.8379 0.00304772L31.8368 0.0036354ZM31.9998 14.5353C33.2328 14.5353 34.2328 15.5628 34.2328 16.8299V38.2449C34.2328 39.5119 33.2334 40.5395 31.9998 40.5395C30.7668 40.5395 29.7669 39.5125 29.7669 38.2449V16.8299C29.7669 15.5628 30.7668 14.5353 31.9998 14.5353ZM31.9998 42.0689C33.2328 42.0689 34.2328 43.0964 34.2328 44.3635C34.2328 45.6306 33.2329 46.6581 31.9998 46.6581C30.7668 46.6581 29.7669 45.6311 29.7669 44.3635C29.7669 43.0964 30.7668 42.0689 31.9998 42.0689Z" fill="#34383C"/>
</svg>
