<svg width="137" height="43" viewBox="0 0 137 43" fill="none" xmlns="http://www.w3.org/2000/svg">
<path d="M121.816 0H14.5847C6.52978 0 0 6.52978 0 14.5847V27.7789C0 35.8338 6.52978 42.3636 14.5847 42.3636H121.816C129.871 42.3636 136.401 35.8338 136.401 27.7789V14.5847C136.401 6.52978 129.871 0 121.816 0Z" fill="#F5F5F5"/>
<path d="M16.8897 9.63937C16.6223 9.9262 16.4619 10.3686 16.4619 10.9423V31.424C16.4619 31.9977 16.6223 32.4401 16.8897 32.7269L16.9578 32.795L28.4311 21.3217V21.0494L16.9578 9.57617L16.8897 9.64423V9.63937Z" fill="url(#paint0_linear_839_14106)"/>
<path d="M32.2577 25.1431L28.4316 21.317V21.0448L32.2577 17.2188L32.3452 17.2674L36.8762 19.844C38.1693 20.5781 38.1693 21.7838 36.8762 22.5178L32.3452 25.0945L32.2577 25.1431Z" fill="url(#paint1_linear_839_14106)"/>
<path d="M28.432 21.1797L16.8906 32.721C17.3184 33.1731 18.0234 33.2266 18.8158 32.7794L32.3455 25.0932L28.432 21.1797Z" fill="url(#paint2_linear_839_14106)"/>
<path d="M32.3445 17.267L18.8148 9.58086C18.0224 9.12874 17.3175 9.18708 16.8896 9.6392L28.431 21.1805L32.3445 17.267Z" fill="url(#paint3_linear_839_14106)"/>
<path opacity="0.2" d="M32.258 25.0078L18.8158 32.6453C18.0623 33.0731 17.3914 33.044 16.9587 32.655L16.8906 32.7231L16.9587 32.7912C17.3914 33.1801 18.0623 33.2093 18.8158 32.7814L32.3455 25.0953L32.258 25.0078Z" fill="black"/>
<path opacity="0.12" d="M16.8907 32.5861C16.6233 32.2993 16.4629 31.8569 16.4629 31.2832V31.4193C16.4629 31.993 16.6233 32.4354 16.8907 32.7222L16.9588 32.6542L16.8907 32.5861Z" fill="black"/>
<path opacity="0.12" d="M36.8763 22.3805L32.2578 25.0057L32.3453 25.0932L36.8763 22.5166C37.5229 22.1471 37.8486 21.6658 37.8486 21.1797C37.7951 21.6172 37.4645 22.0499 36.8763 22.3805Z" fill="black"/>
<path opacity="0.25" d="M18.8149 9.71718L36.8756 19.9799C37.4638 20.3154 37.7896 20.7432 37.8479 21.1807C37.8479 20.6946 37.5222 20.2133 36.8756 19.8438L18.8149 9.58106C17.5217 8.84696 16.4619 9.45466 16.4619 10.9374V11.0736C16.4619 9.59078 17.5217 8.97823 18.8149 9.71718Z" fill="white"/>
<path d="M55.2134 16.6058C55.1405 16.81 55.0335 16.9899 54.8828 17.1406C54.737 17.2913 54.5474 17.4128 54.3237 17.4955C54.1001 17.583 53.8376 17.6219 53.5313 17.6219C53.225 17.6219 52.9674 17.5684 52.7194 17.4663C52.4763 17.3642 52.2624 17.2184 52.0874 17.0336C51.9124 16.8489 51.7763 16.6204 51.6791 16.3579C51.5818 16.0953 51.5332 15.7988 51.5332 15.4779C51.5332 15.1571 51.5818 14.8605 51.6742 14.598C51.7666 14.3355 51.9027 14.107 52.0874 13.9222C52.2673 13.7375 52.4909 13.5916 52.7632 13.4896C53.0306 13.3875 53.3417 13.334 53.6917 13.334C53.9932 13.334 54.2605 13.368 54.4842 13.4409C54.7078 13.509 54.8925 13.5916 55.0432 13.6792L54.9557 14.2139C54.7807 14.0875 54.5863 13.9952 54.3675 13.9271C54.1536 13.859 53.9202 13.8299 53.6772 13.8299C53.4146 13.8299 53.1861 13.8688 52.9917 13.9417C52.7972 14.0146 52.6416 14.1216 52.5152 14.2674C52.3888 14.4084 52.2965 14.5834 52.2333 14.7876C52.1701 14.9918 52.1409 15.2251 52.1409 15.4828C52.1409 16.003 52.2624 16.4113 52.5104 16.6982C52.7583 16.9899 53.0986 17.1309 53.541 17.1309C53.7598 17.1309 53.9445 17.1017 54.1001 17.0482C54.2557 16.9899 54.3821 16.9121 54.4793 16.8149C54.5765 16.7176 54.6495 16.5961 54.6932 16.46C54.737 16.3238 54.7613 16.1731 54.7613 16.0078V15.8912H53.4146V15.3953H55.3301V15.9301C55.3301 16.1731 55.296 16.4016 55.2231 16.6058H55.2134Z" fill="#31363C"/>
<path d="M56.1562 13.3906H58.5676V13.8865H56.7105V15.1505H58.3196V15.6464H56.7105V17.0708H58.5968V17.5667H56.1562V13.3906Z" fill="#31363C"/>
<path d="M60.96 13.8865V17.5667H60.4009V13.8865H59.1758V13.3906H62.1899V13.8865H60.96Z" fill="#31363C"/>
<path d="M64.6157 13.3906V17.5667H64.0615V13.3906H64.6157Z" fill="#31363C"/>
<path d="M67.1143 13.8865V17.5667H66.5552V13.8865H65.3301V13.3906H68.3442V13.8865H67.1143Z" fill="#31363C"/>
<path d="M71.9717 17.6267C71.6897 17.6267 71.4272 17.5781 71.1841 17.4858C70.9411 17.3885 70.7272 17.2524 70.5473 17.0677C70.3674 16.8829 70.2264 16.6593 70.1243 16.3919C70.0222 16.1245 69.9688 15.8134 69.9688 15.4633C69.9688 15.1133 70.0222 14.807 70.1243 14.5397C70.2264 14.2723 70.3674 14.0535 70.5473 13.8736C70.7272 13.6986 70.9362 13.5625 71.1841 13.4701C71.4272 13.3777 71.6897 13.334 71.9717 13.334C72.2537 13.334 72.5259 13.3777 72.769 13.4701C73.0121 13.5625 73.226 13.6986 73.401 13.8736C73.576 14.0535 73.717 14.2771 73.8191 14.5397C73.9212 14.807 73.9698 15.1133 73.9698 15.4633C73.9698 15.8134 73.9212 16.1148 73.8191 16.387C73.717 16.6544 73.5809 16.8829 73.401 17.0628C73.226 17.2475 73.0121 17.3837 72.769 17.4809C72.5259 17.5781 72.2585 17.6219 71.9717 17.6219V17.6267ZM71.9717 17.1309C72.1759 17.1309 72.3606 17.1017 72.5308 17.0385C72.7009 16.9802 72.8517 16.8829 72.9781 16.7517C73.1045 16.6204 73.2017 16.4502 73.2746 16.2412C73.3475 16.0321 73.3816 15.7745 73.3816 15.4779C73.3816 15.1814 73.3475 14.9237 73.2746 14.7147C73.2017 14.5056 73.1045 14.3355 72.9781 14.2042C72.8517 14.0729 72.7009 13.9806 72.5308 13.9174C72.3606 13.859 72.171 13.825 71.9717 13.825C71.7724 13.825 71.5876 13.8542 71.4126 13.9174C71.2376 13.9757 71.0918 14.0729 70.9654 14.2042C70.839 14.3355 70.7417 14.5056 70.6688 14.7147C70.5959 14.9237 70.5619 15.1814 70.5619 15.4779C70.5619 15.7745 70.5959 16.0321 70.6688 16.2412C70.7417 16.4502 70.839 16.6204 70.9654 16.7517C71.0918 16.8829 71.2425 16.9753 71.4126 17.0385C71.5876 17.0968 71.7724 17.1309 71.9717 17.1309Z" fill="#31363C"/>
<path d="M75.2819 14.0615V17.5667H74.7617V13.3906H75.5007L77.6009 16.8958V13.3906H78.1259V17.5667H77.3772L75.277 14.0615H75.2819Z" fill="#31363C"/>
<path d="M60.1484 27.5537C59.988 28.0156 59.74 28.4191 59.4046 28.7594C59.074 29.0997 58.6559 29.3671 58.1503 29.5615C57.6447 29.756 57.0565 29.8484 56.371 29.8484C55.6855 29.8484 55.0973 29.7317 54.5479 29.4983C53.9985 29.265 53.5221 28.9393 53.1283 28.5212C52.7345 28.1031 52.4283 27.5926 52.2095 26.9995C51.9907 26.4064 51.8789 25.7452 51.8789 25.016C51.8789 24.2867 51.9859 23.6304 52.1949 23.0325C52.404 22.4394 52.7151 21.9289 53.1186 21.5108C53.527 21.0927 54.0326 20.767 54.6354 20.5336C55.2382 20.3003 55.9334 20.1836 56.721 20.1836C57.4016 20.1836 57.9947 20.2614 58.5003 20.4218C59.006 20.5774 59.4192 20.7573 59.7546 20.9614L59.5602 22.1671C59.1664 21.8851 58.7288 21.6712 58.2427 21.5254C57.7565 21.3747 57.2363 21.3018 56.687 21.3018C56.0939 21.3018 55.5785 21.3844 55.1459 21.5497C54.7132 21.715 54.3534 21.9581 54.0715 22.2789C53.7846 22.5998 53.5756 22.9887 53.4346 23.4457C53.2936 23.9075 53.2256 24.4277 53.2256 25.016C53.2256 26.1876 53.5027 27.1016 54.0569 27.753C54.6111 28.4045 55.3841 28.7302 56.3759 28.7302C56.8669 28.7302 57.285 28.667 57.635 28.5406C57.985 28.4142 58.267 28.2392 58.4858 28.0156C58.7045 27.7919 58.865 27.5245 58.9671 27.2134C59.0691 26.9023 59.1178 26.562 59.1178 26.1973V25.9348H56.0842V24.8215H60.3915V26.0272C60.3915 26.5765 60.3088 27.087 60.1484 27.5489V27.5537Z" fill="#31363C"/>
<path d="M65.0335 29.8538C64.5717 29.8538 64.1341 29.776 63.7355 29.6156C63.332 29.46 62.9868 29.2267 62.6902 28.9253C62.3985 28.6238 62.1652 28.2544 61.9999 27.8168C61.8346 27.3793 61.752 26.8785 61.752 26.3049C61.752 25.7312 61.8346 25.2451 61.9999 24.8027C62.1652 24.3603 62.3937 23.9908 62.6902 23.6942C62.9819 23.3977 63.332 23.1692 63.7355 23.0136C64.139 22.858 64.5717 22.7754 65.0335 22.7754C65.4954 22.7754 65.9426 22.8532 66.3461 23.0136C66.7496 23.1692 67.0948 23.3977 67.3914 23.6942C67.683 23.9908 67.9164 24.3603 68.0866 24.8027C68.2567 25.2451 68.3442 25.7458 68.3442 26.3049C68.3442 26.864 68.2616 27.3793 68.0866 27.8168C67.9164 28.2544 67.683 28.6238 67.3914 28.9253C67.0997 29.2267 66.7496 29.4552 66.3461 29.6156C65.9426 29.7712 65.5051 29.8538 65.0335 29.8538ZM65.0335 28.828C65.3398 28.828 65.6218 28.7794 65.8843 28.6773C66.1468 28.5752 66.3704 28.4245 66.56 28.2155C66.7496 28.0113 66.8955 27.7488 67.0073 27.4328C67.1142 27.1168 67.1726 26.7424 67.1726 26.3146C67.1726 25.8868 67.1191 25.5124 67.0073 25.1964C66.8955 24.8804 66.7496 24.6179 66.56 24.4137C66.3704 24.2096 66.1468 24.054 65.8843 23.9519C65.6218 23.8498 65.3398 23.8012 65.0335 23.8012C64.7272 23.8012 64.4453 23.8498 64.1924 23.9519C63.9396 24.054 63.716 24.2047 63.5313 24.4137C63.3465 24.6228 63.1958 24.8804 63.0937 25.1964C62.9868 25.5124 62.9382 25.8868 62.9382 26.3146C62.9382 26.7424 62.9916 27.1168 63.0937 27.4328C63.1958 27.7488 63.3465 28.0113 63.5313 28.2155C63.716 28.4197 63.9396 28.5752 64.1924 28.6773C64.4453 28.7794 64.7272 28.828 65.0335 28.828Z" fill="#31363C"/>
<path d="M72.6761 29.8538C72.2142 29.8538 71.7767 29.776 71.378 29.6156C70.9745 29.46 70.6294 29.2267 70.3328 28.9253C70.0411 28.6238 69.8078 28.2544 69.6425 27.8168C69.4772 27.3793 69.3945 26.8785 69.3945 26.3049C69.3945 25.7312 69.4772 25.2451 69.6425 24.8027C69.8078 24.3603 70.0363 23.9908 70.3328 23.6942C70.6245 23.3977 70.9745 23.1692 71.378 23.0136C71.7816 22.858 72.2142 22.7754 72.6761 22.7754C73.1379 22.7754 73.5852 22.8532 73.9887 23.0136C74.3922 23.1692 74.7374 23.3977 75.0339 23.6942C75.3256 23.9908 75.559 24.3603 75.7291 24.8027C75.8993 25.2451 75.9868 25.7458 75.9868 26.3049C75.9868 26.864 75.9042 27.3793 75.7291 27.8168C75.559 28.2544 75.3256 28.6238 75.0339 28.9253C74.7422 29.2267 74.3922 29.4552 73.9887 29.6156C73.5852 29.7712 73.1477 29.8538 72.6761 29.8538ZM72.6761 28.828C72.9824 28.828 73.2643 28.7794 73.5269 28.6773C73.7894 28.5752 74.013 28.4245 74.2026 28.2155C74.3922 28.0113 74.5381 27.7488 74.6499 27.4328C74.7568 27.1168 74.8152 26.7424 74.8152 26.3146C74.8152 25.8868 74.7617 25.5124 74.6499 25.1964C74.5381 24.8804 74.3922 24.6179 74.2026 24.4137C74.013 24.2096 73.7894 24.054 73.5269 23.9519C73.2643 23.8498 72.9824 23.8012 72.6761 23.8012C72.3698 23.8012 72.0878 23.8498 71.835 23.9519C71.5822 24.054 71.3586 24.2047 71.1739 24.4137C70.9891 24.6228 70.8384 24.8804 70.7363 25.1964C70.6294 25.5124 70.5807 25.8868 70.5807 26.3146C70.5807 26.7424 70.6342 27.1168 70.7363 27.4328C70.8384 27.7488 70.9891 28.0113 71.1739 28.2155C71.3586 28.4197 71.5822 28.5752 71.835 28.6773C72.0878 28.7794 72.3698 28.828 72.6761 28.828Z" fill="#31363C"/>
<path d="M79.9055 32.0697C79.2686 32.0697 78.7436 32.0163 78.345 31.9142C77.9414 31.8121 77.6449 31.7003 77.4504 31.5884L77.6886 30.5335C77.9074 30.6453 78.1942 30.762 78.5394 30.8738C78.8894 30.9856 79.3513 31.0439 79.9201 31.0439C80.7709 31.0439 81.3688 30.8738 81.7237 30.5286C82.0786 30.1835 82.2536 29.707 82.2536 29.0896V28.1027C82.0543 28.5062 81.7675 28.8271 81.4077 29.075C81.0431 29.3181 80.5959 29.4445 80.0611 29.4445C79.6576 29.4445 79.2735 29.3764 78.9138 29.2354C78.5491 29.0945 78.2331 28.8854 77.956 28.6132C77.6789 28.3361 77.4601 27.9909 77.2997 27.5777C77.1393 27.1644 77.0566 26.6783 77.0566 26.1289C77.0566 25.5796 77.1393 25.0788 77.2997 24.6656C77.4601 24.2523 77.6789 23.9023 77.956 23.6203C78.2331 23.3384 78.554 23.1293 78.9186 22.9883C79.2881 22.8474 79.677 22.7793 80.0854 22.7793C80.6299 22.7793 81.0869 22.9008 81.4564 23.1488C81.8258 23.3919 82.1175 23.7273 82.3314 24.1454L82.346 23.9995C82.346 23.844 82.3557 23.6495 82.3703 23.4307C82.3898 23.2071 82.4092 23.037 82.4335 22.9106H83.469C83.4496 23.0321 83.435 23.2071 83.4253 23.4356C83.4107 23.6641 83.4058 23.8537 83.4058 23.9995V29.0799C83.4058 29.5174 83.3426 29.9209 83.2065 30.2855C83.0752 30.655 82.8662 30.9662 82.5842 31.2287C82.3023 31.4912 81.9376 31.6954 81.4952 31.8461C81.0528 31.9968 80.5229 32.0697 79.9007 32.0697H79.9055ZM80.2847 28.4187C80.5667 28.4187 80.8243 28.3749 81.0674 28.2826C81.3056 28.1902 81.5196 28.0492 81.6994 27.8548C81.8793 27.6603 82.0203 27.4221 82.1175 27.1353C82.2196 26.8484 82.2682 26.513 82.2682 26.1289C82.2682 25.7448 82.2196 25.39 82.1175 25.1031C82.0154 24.8114 81.8744 24.5732 81.6994 24.3787C81.5196 24.1843 81.3105 24.0433 81.0674 23.9461C80.8243 23.8488 80.5618 23.8002 80.275 23.8002C79.9882 23.8002 79.7159 23.8488 79.468 23.9461C79.22 24.0433 79.0013 24.1891 78.8165 24.3787C78.6318 24.5732 78.4908 24.8163 78.3838 25.108C78.2769 25.3997 78.2283 25.74 78.2283 26.1289C78.2283 26.5178 78.2818 26.8484 78.3838 27.1353C78.4908 27.4221 78.6318 27.6554 78.8165 27.845C79.0013 28.0346 79.2152 28.1756 79.468 28.2729C79.7159 28.3701 79.993 28.4187 80.2896 28.4187H80.2847Z" fill="#31363C"/>
<path d="M86.6004 20.3242V29.7216H85.4434V20.3242H86.6004Z" fill="#31363C"/>
<path d="M94.0571 29.1489C93.9598 29.217 93.8383 29.2899 93.6973 29.3726C93.5515 29.4503 93.3813 29.5281 93.1771 29.6011C92.9778 29.674 92.7444 29.7372 92.4868 29.7858C92.2291 29.8344 91.9423 29.8587 91.6263 29.8587C90.479 29.8587 89.6087 29.5476 89.0156 28.9253C88.4225 28.303 88.1211 27.4328 88.1211 26.3146C88.1211 25.7653 88.2037 25.2694 88.3642 24.8319C88.5246 24.3943 88.7531 24.0249 89.0399 23.7234C89.3268 23.422 89.6719 23.1887 90.0706 23.0282C90.4692 22.8678 90.897 22.7852 91.3638 22.7852C91.8305 22.7852 92.2777 22.8678 92.6618 23.0331C93.0459 23.1984 93.3619 23.4463 93.6147 23.7721C93.8626 24.0978 94.0328 24.5013 94.1251 24.9777C94.2175 25.4541 94.2126 26.0132 94.1203 26.6452H89.317C89.3608 27.3793 89.5844 27.9287 89.9879 28.2933C90.3914 28.6579 90.9602 28.8378 91.6943 28.8378C92.1756 28.8378 92.584 28.76 92.9146 28.6093C93.2452 28.4586 93.5272 28.303 93.7556 28.1426L94.0571 29.1587V29.1489ZM91.3394 23.8012C90.8338 23.8012 90.3963 23.9519 90.0414 24.2582C89.6817 24.5645 89.4532 25.0263 89.3608 25.6486H93.0215C93.041 25.3326 93.007 25.0604 92.9292 24.827C92.8514 24.5937 92.7347 24.4041 92.5889 24.2485C92.4382 24.0978 92.2583 23.9811 92.0444 23.9082C91.8305 23.8353 91.5971 23.7964 91.3443 23.7964L91.3394 23.8012Z" fill="#31363C"/>
<path d="M99.7162 26.0609V29.7216H98.4717V20.3242H101.214C102.283 20.3242 103.11 20.543 103.703 20.9854C104.296 21.4278 104.588 22.1133 104.588 23.0418C104.588 23.5766 104.5 24.0336 104.33 24.4128C104.16 24.792 103.921 25.108 103.615 25.3511C103.309 25.5941 102.939 25.774 102.512 25.8907C102.084 26.0025 101.617 26.0609 101.107 26.0609H99.7162ZM99.7162 21.4424V24.9476H101.107C101.437 24.9476 101.739 24.9135 102.011 24.8406C102.283 24.7725 102.516 24.6607 102.711 24.51C102.91 24.3593 103.061 24.1648 103.168 23.9266C103.28 23.6836 103.333 23.3967 103.333 23.0516C103.333 22.4827 103.148 22.0695 102.784 21.8167C102.414 21.5639 101.889 21.4375 101.209 21.4375H99.7114L99.7162 21.4424Z" fill="#31363C"/>
<path d="M107.34 20.3242V29.7216H106.183V20.3242H107.34Z" fill="#31363C"/>
<path d="M113.26 28.5937C113.163 28.7444 113.046 28.8951 112.91 29.0458C112.774 29.2014 112.614 29.3327 112.424 29.4542C112.235 29.5709 112.021 29.6681 111.773 29.741C111.53 29.814 111.257 29.8529 110.961 29.8529C110.348 29.8529 109.852 29.6778 109.478 29.3327C109.104 28.9875 108.914 28.4916 108.914 27.845C108.914 26.3671 110.008 25.6282 112.196 25.6282H113.192V25.1177C113.192 24.6461 113.066 24.3107 112.818 24.1065C112.57 23.9072 112.157 23.8051 111.578 23.8051C111.131 23.8051 110.737 23.8634 110.392 23.9752C110.047 24.0871 109.745 24.2183 109.493 24.369L109.215 23.4113C109.454 23.2606 109.779 23.1196 110.202 22.9835C110.62 22.8474 111.107 22.7793 111.661 22.7793C112.536 22.7793 113.202 22.9592 113.664 23.3189C114.126 23.6787 114.354 24.228 114.354 24.9719V28.6229C114.354 28.7007 114.354 28.793 114.359 28.8903C114.359 28.9924 114.369 29.0945 114.374 29.1966C114.374 29.3035 114.383 29.4007 114.393 29.4931C114.403 29.5855 114.412 29.6633 114.417 29.7216H113.353C113.333 29.6001 113.314 29.425 113.294 29.2014C113.275 28.9778 113.26 28.7833 113.26 28.618V28.5937ZM111.214 28.8319C111.457 28.8319 111.685 28.7979 111.889 28.725C112.094 28.6569 112.278 28.5645 112.439 28.4479C112.599 28.3361 112.745 28.2097 112.871 28.0784C112.998 27.9471 113.105 27.8159 113.192 27.6846V26.547H112.298C111.476 26.547 110.898 26.654 110.567 26.8727C110.236 27.0866 110.066 27.3929 110.066 27.7916C110.066 28.0978 110.159 28.3506 110.343 28.5451C110.528 28.7396 110.815 28.8368 111.209 28.8368L111.214 28.8319Z" fill="#31363C"/>
<path d="M116.737 32.1763C116.586 32.1763 116.45 32.1666 116.323 32.152C116.197 32.1325 116.095 32.1082 116.017 32.0742L116.163 31.0776C116.207 31.097 116.275 31.1116 116.362 31.1311C116.45 31.1505 116.567 31.1554 116.717 31.1554C117.043 31.1554 117.306 31.0776 117.519 30.922C117.728 30.7664 117.928 30.5185 118.108 30.183L115.482 22.9102H116.727L118.735 28.6857L120.782 22.9102H121.909L119.508 29.6434C119.211 30.465 118.851 31.0922 118.424 31.5248C118.001 31.9575 117.437 32.1763 116.737 32.1763Z" fill="#31363C"/>
<defs>
<linearGradient id="paint0_linear_839_14106" x1="27.415" y1="10.7235" x2="11.8677" y2="26.2659" gradientUnits="userSpaceOnUse">
<stop stop-color="#5A9FFB"/>
<stop offset="0.26" stop-color="#6BBCFC"/>
<stop offset="0.51" stop-color="#76D0FC"/>
<stop offset="0.76" stop-color="#7DDDFD"/>
<stop offset="1" stop-color="#80E1FD"/>
</linearGradient>
<linearGradient id="paint1_linear_839_14106" x1="38.5583" y1="21.1809" x2="16.1513" y2="21.1809" gradientUnits="userSpaceOnUse">
<stop stop-color="#F5DE34"/>
<stop offset="0.41" stop-color="#EDBB2C"/>
<stop offset="0.78" stop-color="#E8A326"/>
<stop offset="1" stop-color="#E79A24"/>
</linearGradient>
<linearGradient id="paint2_linear_839_14106" x1="30.2162" y1="23.3042" x2="9.1413" y2="44.3839" gradientUnits="userSpaceOnUse">
<stop stop-color="#DC3D45"/>
<stop offset="1" stop-color="#A61860"/>
</linearGradient>
<linearGradient id="paint3_linear_839_14106" x1="13.9824" y1="2.81844" x2="23.3944" y2="12.2304" gradientUnits="userSpaceOnUse">
<stop stop-color="#629E73"/>
<stop offset="0.07" stop-color="#64A473"/>
<stop offset="0.48" stop-color="#76CD79"/>
<stop offset="0.8" stop-color="#81E57C"/>
<stop offset="1" stop-color="#86EF7D"/>
</linearGradient>
</defs>
</svg>
