<svg width="139" height="44" viewBox="0 0 139 44" fill="none" xmlns="http://www.w3.org/2000/svg">
<path d="M124.117 0H14.9478C6.74739 0 0.0996094 6.64778 0.0996094 14.8482V28.2809C0.0996094 36.4814 6.74739 43.1292 14.9478 43.1292H124.117C132.317 43.1292 138.965 36.4814 138.965 28.2809V14.8482C138.965 6.64778 132.317 0 124.117 0Z" fill="#F5F5F5"/>
<path d="M24.1245 14.9814C22.8376 14.2885 21.3033 14.1944 19.962 14.7636C17.9624 15.61 15.5273 17.565 15.5273 22.0591C15.5273 27.4193 18.007 31.2749 20.0561 33.0022C20.9321 33.7446 22.12 34.0069 23.2286 33.71L25.7033 33.0467C26.3171 32.8834 26.9654 32.8884 27.5742 33.0616L29.6926 33.6654C30.7517 33.9673 31.895 33.7595 32.776 33.0913C33.954 32.1954 35.4636 30.4632 36.5574 27.1223C32.0683 25.3554 31.6426 19.1686 35.8496 16.8077L35.9338 16.7582C35.9338 16.7582 34.7756 15.1546 32.4642 14.4419C31.2962 14.0806 30.0291 14.2043 28.9303 14.7438L27.8415 15.2784C26.8071 15.7882 25.5895 15.7634 24.5749 15.219L24.1195 14.9715L24.1245 14.9814Z" fill="#31363C"/>
<path d="M26.0449 13.8345C26.0449 13.9582 26.0499 14.082 26.0598 14.2057C29.0641 13.8642 31.4002 11.3152 31.4002 8.21691C31.4002 8.09317 31.3952 7.96944 31.3853 7.8457C28.381 8.18721 26.0449 10.7362 26.0449 13.8345Z" fill="#31363C"/>
<path d="M52.5342 13.8984H53.9646C54.2517 13.8984 54.514 13.9331 54.7615 13.9974C55.0089 14.0618 55.2218 14.1707 55.4049 14.329C55.588 14.4825 55.7316 14.6854 55.8305 14.9428C55.9345 15.1952 55.984 15.5119 55.984 15.8881C55.984 16.2643 55.9295 16.5959 55.8256 16.878C55.7217 17.1601 55.5781 17.3977 55.3901 17.5857C55.2069 17.7738 54.9891 17.9174 54.7318 18.0114C54.4794 18.1054 54.2022 18.1549 53.9003 18.1549H52.5293V13.9034L52.5342 13.8984ZM53.0985 14.4033V17.6451H53.9052C54.123 17.6451 54.321 17.6105 54.5041 17.5462C54.6823 17.4769 54.8407 17.3729 54.9694 17.2343C55.098 17.0958 55.202 16.9126 55.2713 16.6949C55.3406 16.4771 55.3801 16.2197 55.3801 15.9178C55.3801 15.6159 55.3455 15.3734 55.2713 15.1803C55.202 14.9824 55.103 14.8289 54.9792 14.7151C54.8555 14.6013 54.707 14.5221 54.5288 14.4726C54.3556 14.428 54.1675 14.4033 53.9646 14.4033H53.0985Z" fill="#31363C"/>
<path d="M58.5919 18.2082C58.3048 18.2082 58.0376 18.1587 57.7901 18.0647C57.5426 17.9657 57.3248 17.8271 57.1417 17.639C56.9586 17.451 56.815 17.2233 56.7111 16.9511C56.6072 16.6789 56.5527 16.3621 56.5527 16.0057C56.5527 15.6494 56.6072 15.3376 56.7111 15.0653C56.815 14.7931 56.9586 14.5704 57.1417 14.3873C57.3248 14.2091 57.5377 14.0705 57.7901 13.9765C58.0376 13.8824 58.3048 13.8379 58.5919 13.8379C58.879 13.8379 59.1561 13.8824 59.4036 13.9765C59.6511 14.0705 59.8688 14.2091 60.047 14.3873C60.2252 14.5704 60.3687 14.7981 60.4727 15.0653C60.5766 15.3376 60.6261 15.6494 60.6261 16.0057C60.6261 16.3621 60.5766 16.669 60.4727 16.9461C60.3687 17.2183 60.2301 17.451 60.047 17.6341C59.8688 17.8222 59.6511 17.9608 59.4036 18.0597C59.1561 18.1587 58.8839 18.2033 58.5919 18.2033V18.2082ZM58.5919 17.7034C58.7998 17.7034 58.9878 17.6737 59.1611 17.6093C59.3343 17.55 59.4877 17.451 59.6164 17.3173C59.7451 17.1837 59.8441 17.0105 59.9183 16.7976C59.9926 16.5848 60.0272 16.3225 60.0272 16.0206C60.0272 15.7187 59.9926 15.4563 59.9183 15.2435C59.8441 15.0307 59.7451 14.8575 59.6164 14.7238C59.4877 14.5902 59.3343 14.4962 59.1611 14.4318C58.9878 14.3724 58.7948 14.3378 58.5919 14.3378C58.389 14.3378 58.2009 14.3675 58.0227 14.4318C57.8445 14.4912 57.696 14.5902 57.5674 14.7238C57.4387 14.8575 57.3397 15.0307 57.2654 15.2435C57.1912 15.4563 57.1565 15.7187 57.1565 16.0206C57.1565 16.3225 57.1912 16.5848 57.2654 16.7976C57.3397 17.0105 57.4387 17.1837 57.5674 17.3173C57.696 17.451 57.8495 17.545 58.0227 17.6093C58.2009 17.6687 58.389 17.7034 58.5919 17.7034Z" fill="#31363C"/>
<path d="M60.9434 13.8984H61.5274L62.3292 17.6402L63.3092 13.8984H63.9377L64.888 17.5709L65.6898 13.8984H66.2244L65.2939 18.15H64.4723L63.6012 14.6507L62.7103 18.15H61.8887L60.9434 13.8984Z" fill="#31363C"/>
<path d="M67.4368 14.5815V18.15H66.9072V13.8984H67.6595L69.7977 17.467V13.8984H70.3322V18.15H69.57L67.4319 14.5815H67.4368Z" fill="#31363C"/>
<path d="M71.3906 13.8984H71.9549V17.6451H73.895V18.15H71.3906V13.8984Z" fill="#31363C"/>
<path d="M76.3351 18.2082C76.048 18.2082 75.7807 18.1587 75.5333 18.0647C75.2858 17.9657 75.068 17.8271 74.8849 17.639C74.7018 17.451 74.5582 17.2233 74.4543 16.9511C74.3503 16.6789 74.2959 16.3621 74.2959 16.0057C74.2959 15.6494 74.3503 15.3376 74.4543 15.0653C74.5582 14.7931 74.7018 14.5704 74.8849 14.3873C75.068 14.2091 75.2808 14.0705 75.5333 13.9765C75.7807 13.8824 76.048 13.8379 76.3351 13.8379C76.6221 13.8379 76.8993 13.8824 77.1468 13.9765C77.3942 14.0705 77.612 14.2091 77.7902 14.3873C77.9684 14.5704 78.1119 14.7981 78.2158 15.0653C78.3198 15.3376 78.3693 15.6494 78.3693 16.0057C78.3693 16.3621 78.3198 16.669 78.2158 16.9461C78.1119 17.2183 77.9733 17.451 77.7902 17.6341C77.612 17.8222 77.3942 17.9608 77.1468 18.0597C76.8993 18.1587 76.6271 18.2033 76.3351 18.2033V18.2082ZM76.3351 17.7034C76.5429 17.7034 76.731 17.6737 76.9042 17.6093C77.0775 17.55 77.2309 17.451 77.3596 17.3173C77.4883 17.1837 77.5873 17.0105 77.6615 16.7976C77.7357 16.5848 77.7704 16.3225 77.7704 16.0206C77.7704 15.7187 77.7357 15.4563 77.6615 15.2435C77.5873 15.0307 77.4883 14.8575 77.3596 14.7238C77.2309 14.5902 77.0775 14.4962 76.9042 14.4318C76.731 14.3724 76.538 14.3378 76.3351 14.3378C76.1321 14.3378 75.9441 14.3675 75.7659 14.4318C75.5877 14.4912 75.4392 14.5902 75.3105 14.7238C75.1819 14.8575 75.0829 15.0307 75.0086 15.2435C74.9344 15.4563 74.8997 15.7187 74.8997 16.0206C74.8997 16.3225 74.9344 16.5848 75.0086 16.7976C75.0829 17.0105 75.1819 17.1837 75.3105 17.3173C75.4392 17.451 75.5926 17.545 75.7659 17.6093C75.9441 17.6687 76.1321 17.7034 76.3351 17.7034Z" fill="#31363C"/>
<path d="M81.2561 16.9324H79.5535L79.1477 18.15H78.623L80.0188 13.8984H80.8503L82.251 18.15H81.657L81.2512 16.9324H81.2561ZM80.3999 14.3439L79.7119 16.4424H81.0978L80.4048 14.3439H80.3999Z" fill="#31363C"/>
<path d="M82.9327 13.8984H84.3631C84.6501 13.8984 84.9125 13.9331 85.1599 13.9974C85.4074 14.0618 85.6202 14.1707 85.8033 14.329C85.9865 14.4825 86.13 14.6854 86.229 14.9428C86.3329 15.1952 86.3824 15.5119 86.3824 15.8881C86.3824 16.2643 86.328 16.5959 86.2241 16.878C86.1201 17.1601 85.9766 17.3977 85.7885 17.5857C85.6054 17.7738 85.3876 17.9174 85.1302 18.0114C84.8778 18.1054 84.6006 18.1549 84.2987 18.1549H82.9277V13.9034L82.9327 13.8984ZM83.4969 14.4033V17.6451H84.3037C84.5214 17.6451 84.7194 17.6105 84.9026 17.5462C85.0807 17.4769 85.2391 17.3729 85.3678 17.2343C85.4965 17.0958 85.6004 16.9126 85.6697 16.6949C85.739 16.4771 85.7786 16.2197 85.7786 15.9178C85.7786 15.6159 85.7439 15.3734 85.6697 15.1803C85.6004 14.9824 85.5014 14.8289 85.3777 14.7151C85.254 14.6013 85.1055 14.5221 84.9273 14.4726C84.7541 14.428 84.566 14.4033 84.3631 14.4033H83.4969Z" fill="#31363C"/>
<path d="M90.1534 18.2082C89.8664 18.2082 89.5991 18.1587 89.3516 18.0647C89.1041 17.9657 88.8864 17.8271 88.7032 17.639C88.5201 17.451 88.3766 17.2233 88.2726 16.9511C88.1687 16.6789 88.1143 16.3621 88.1143 16.0057C88.1143 15.6494 88.1687 15.3376 88.2726 15.0653C88.3766 14.7931 88.5201 14.5704 88.7032 14.3873C88.8864 14.2091 89.0992 14.0705 89.3516 13.9765C89.5991 13.8824 89.8664 13.8379 90.1534 13.8379C90.4405 13.8379 90.7177 13.8824 90.9651 13.9765C91.2126 14.0705 91.4304 14.2091 91.6085 14.3873C91.7867 14.5704 91.9303 14.7981 92.0342 15.0653C92.1382 15.3376 92.1876 15.6494 92.1876 16.0057C92.1876 16.3621 92.1382 16.669 92.0342 16.9461C91.9303 17.2183 91.7917 17.451 91.6085 17.6341C91.4304 17.8222 91.2126 17.9608 90.9651 18.0597C90.7177 18.1587 90.4455 18.2033 90.1534 18.2033V18.2082ZM90.1534 17.7034C90.3613 17.7034 90.5494 17.6737 90.7226 17.6093C90.8958 17.55 91.0493 17.451 91.1779 17.3173C91.3066 17.1837 91.4056 17.0105 91.4799 16.7976C91.5541 16.5848 91.5888 16.3225 91.5888 16.0206C91.5888 15.7187 91.5541 15.4563 91.4799 15.2435C91.4056 15.0307 91.3066 14.8575 91.1779 14.7238C91.0493 14.5902 90.8958 14.4962 90.7226 14.4318C90.5494 14.3724 90.3564 14.3378 90.1534 14.3378C89.9505 14.3378 89.7624 14.3675 89.5842 14.4318C89.4061 14.4912 89.2576 14.5902 89.1289 14.7238C89.0002 14.8575 88.9012 15.0307 88.827 15.2435C88.7527 15.4563 88.7181 15.7187 88.7181 16.0206C88.7181 16.3225 88.7527 16.5848 88.827 16.7976C88.9012 17.0105 89.0002 17.1837 89.1289 17.3173C89.2576 17.451 89.411 17.545 89.5842 17.6093C89.7624 17.6687 89.9505 17.7034 90.1534 17.7034Z" fill="#31363C"/>
<path d="M93.5257 14.5815V18.15H92.9961V13.8984H93.7484L95.8865 17.467V13.8984H96.4211V18.15H95.6589L93.5207 14.5815H93.5257Z" fill="#31363C"/>
<path d="M100.143 14.4033V18.15H99.5734V14.4033H98.3262V13.8984H101.395V14.4033H100.143Z" fill="#31363C"/>
<path d="M104.884 16.2949H102.696V18.1558H102.132V13.9043H102.696V15.795H104.884V13.9043H105.443V18.1558H104.884V16.2949Z" fill="#31363C"/>
<path d="M106.498 13.8984H108.953V14.4033H107.062V15.6901H108.701V16.195H107.062V17.6451H108.983V18.15H106.498V13.8984Z" fill="#31363C"/>
<path d="M58.2604 27.7842H54.4246L53.5139 30.5262H52.3359L55.4739 20.959H57.3447L60.4975 30.5262H59.1612L58.2505 27.7842H58.2604ZM56.3351 21.9588L54.7859 26.6756H57.8991L56.3351 21.9588Z" fill="#31363C"/>
<path d="M65.3526 30.6556C64.8181 30.6556 64.3578 30.5318 63.9717 30.2794C63.5857 30.0319 63.2739 29.6855 63.0412 29.2499V32.8828H61.8633V23.5829H62.9076L63.0165 24.9439C63.2491 24.4886 63.5609 24.1273 63.9519 23.8551C64.3429 23.5829 64.828 23.4492 65.4071 23.4492C65.808 23.4492 66.194 23.5235 66.5603 23.6719C66.9315 23.8204 67.2532 24.0431 67.5353 24.3401C67.8174 24.6371 68.0401 25.0132 68.2035 25.4636C68.3668 25.914 68.4509 26.4436 68.4509 27.0474C68.4509 27.6513 68.3668 28.1957 68.1985 28.6461C68.0303 29.0965 67.8026 29.4727 67.5155 29.7696C67.2284 30.0666 66.9018 30.2893 66.5256 30.4378C66.1495 30.5863 65.7585 30.6605 65.3477 30.6605L65.3526 30.6556ZM65.1794 29.6112C65.7931 29.6112 66.293 29.3984 66.6692 28.9728C67.0503 28.5471 67.2383 27.9086 67.2383 27.0524C67.2383 26.1961 67.0503 25.5775 66.6692 25.1419C66.293 24.7064 65.7931 24.4935 65.1794 24.4935C64.8775 24.4935 64.5954 24.548 64.333 24.6519C64.0707 24.7608 63.8431 24.9192 63.65 25.1271C63.457 25.3349 63.3085 25.6022 63.1947 25.9239C63.0808 26.2456 63.0264 26.6218 63.0264 27.0474C63.0264 27.4731 63.0808 27.8492 63.1947 28.171C63.3036 28.4927 63.457 28.7599 63.65 28.9728C63.8431 29.1856 64.0707 29.344 64.333 29.4479C64.5954 29.5518 64.8775 29.6013 65.1794 29.6013V29.6112Z" fill="#31363C"/>
<path d="M73.5343 30.6556C72.9997 30.6556 72.5394 30.5318 72.1534 30.2794C71.7673 30.0319 71.4555 29.6855 71.2229 29.2499V32.8828H70.0449V23.5829H71.0893L71.1981 24.9439C71.4308 24.4886 71.7426 24.1273 72.1336 23.8551C72.5246 23.5829 73.0096 23.4492 73.5887 23.4492C73.9896 23.4492 74.3757 23.5235 74.7419 23.6719C75.1131 23.8204 75.4348 24.0431 75.7169 24.3401C75.9991 24.6371 76.2218 25.0132 76.3851 25.4636C76.5484 25.914 76.6326 26.4436 76.6326 27.0474C76.6326 27.6513 76.5485 28.1957 76.3802 28.6461C76.2119 29.0965 75.9842 29.4727 75.6972 29.7696C75.4101 30.0666 75.0834 30.2893 74.7073 30.4378C74.3311 30.5863 73.9401 30.6605 73.5293 30.6605L73.5343 30.6556ZM73.361 29.6112C73.9748 29.6112 74.4746 29.3984 74.8508 28.9728C75.2319 28.5471 75.42 27.9086 75.42 27.0524C75.42 26.1961 75.2319 25.5775 74.8508 25.1419C74.4746 24.7064 73.9748 24.4935 73.361 24.4935C73.0591 24.4935 72.777 24.548 72.5147 24.6519C72.2524 24.7608 72.0247 24.9192 71.8317 25.1271C71.6386 25.3349 71.4902 25.6022 71.3763 25.9239C71.2625 26.2456 71.208 26.6218 71.208 27.0474C71.208 27.4731 71.2625 27.8492 71.3763 28.171C71.4852 28.4927 71.6386 28.7599 71.8317 28.9728C72.0247 29.1856 72.2524 29.344 72.5147 29.4479C72.777 29.5518 73.0591 29.6013 73.361 29.6013V29.6112Z" fill="#31363C"/>
<path d="M79.3987 20.957V30.5242H78.2207V20.957H79.3987Z" fill="#31363C"/>
<path d="M86.9915 29.9397C86.8925 30.009 86.7688 30.0882 86.6252 30.1674C86.4767 30.2466 86.3035 30.3258 86.0956 30.4C85.8927 30.4743 85.6551 30.5386 85.3928 30.5881C85.1305 30.6376 84.8385 30.6623 84.5168 30.6623C83.3487 30.6623 82.4628 30.3456 81.8589 29.712C81.2551 29.0785 80.9482 28.1926 80.9482 27.0542C80.9482 26.4949 81.0324 25.9901 81.1957 25.5446C81.359 25.0992 81.5917 24.723 81.8837 24.4162C82.1757 24.1093 82.5271 23.8717 82.933 23.7084C83.3388 23.5451 83.7744 23.4609 84.2495 23.4609C84.7246 23.4609 85.18 23.5451 85.571 23.7134C85.962 23.8816 86.2837 24.1341 86.5411 24.4657C86.7935 24.7973 86.9667 25.2081 87.0608 25.6931C87.1548 26.1782 87.1499 26.7473 87.0558 27.3908H82.1658C82.2104 28.1381 82.438 28.6974 82.8488 29.0686C83.2596 29.4398 83.8387 29.623 84.5861 29.623C85.0761 29.623 85.4918 29.5438 85.8284 29.3903C86.1649 29.2369 86.452 29.0785 86.6846 28.9152L86.9915 29.9496V29.9397ZM84.2247 24.4954C83.71 24.4954 83.2646 24.6537 82.9033 24.9606C82.537 25.2724 82.3044 25.7426 82.2104 26.3761H85.9373C85.9571 26.0544 85.9224 25.7773 85.8432 25.5397C85.764 25.3021 85.6452 25.1091 85.4968 24.9507C85.3433 24.7973 85.1602 24.6785 84.9424 24.6043C84.7246 24.53 84.4871 24.4904 84.2297 24.4904L84.2247 24.4954Z" fill="#31363C"/>
<path d="M94.0735 30.6567C93.7072 30.6567 93.3608 30.627 93.0292 30.5677C92.6976 30.5083 92.3956 30.439 92.1185 30.3548C91.8413 30.2707 91.5988 30.1717 91.381 30.0628C91.1682 29.9539 90.995 29.8401 90.8613 29.7362L91.0642 28.5334C91.1979 28.6423 91.3711 28.7512 91.579 28.8651C91.7868 28.9789 92.0244 29.0878 92.2818 29.1868C92.5392 29.2858 92.8213 29.3649 93.1232 29.4293C93.4251 29.4936 93.7419 29.5233 94.0735 29.5233C94.7664 29.5233 95.3207 29.3897 95.7365 29.1274C96.1522 28.8651 96.3552 28.4642 96.3552 27.9296C96.3552 27.6624 96.3057 27.4396 96.2067 27.2664C96.1077 27.0932 95.9642 26.9447 95.781 26.8259C95.593 26.7071 95.3603 26.6032 95.0782 26.519C94.7961 26.4349 94.4694 26.3409 94.0982 26.2468C93.7221 26.1478 93.3509 26.0389 92.9747 25.9152C92.5986 25.7915 92.262 25.6281 91.965 25.4203C91.6681 25.2173 91.4255 24.955 91.2424 24.6432C91.0593 24.3314 90.9702 23.9354 90.9702 23.4554C90.9702 22.6337 91.2573 21.9903 91.8264 21.5251C92.3956 21.0598 93.2618 20.8223 94.42 20.8223C94.7862 20.8223 95.1079 20.8421 95.395 20.8817C95.682 20.9213 95.9295 20.9707 96.1423 21.0301C96.3552 21.0895 96.5432 21.1539 96.7016 21.2232C96.86 21.2925 96.9986 21.3618 97.1174 21.4211L96.959 22.6387C96.6472 22.4358 96.276 22.2675 95.8503 22.1438C95.4247 22.02 94.9446 21.9557 94.42 21.9557C94.0092 21.9557 93.6627 21.9903 93.3855 22.0547C93.1034 22.119 92.8757 22.218 92.7025 22.3417C92.5293 22.4655 92.4055 22.6189 92.3263 22.7971C92.2521 22.9753 92.2125 23.1782 92.2125 23.396C92.2125 23.6632 92.2719 23.886 92.3956 24.0641C92.5144 24.2423 92.6778 24.3908 92.8757 24.5096C93.0787 24.6284 93.3063 24.7323 93.5637 24.8115C93.8211 24.8907 94.0933 24.9649 94.3804 25.0243C94.7565 25.1233 95.1376 25.2272 95.5286 25.3361C95.9196 25.445 96.271 25.6034 96.5828 25.8113C96.8947 26.0142 97.152 26.2815 97.35 26.6081C97.5529 26.9348 97.6519 27.3555 97.6519 27.8702C97.6519 28.385 97.5529 28.8106 97.35 29.162C97.1471 29.5134 96.8848 29.8005 96.5531 30.0232C96.2215 30.2459 95.8404 30.4043 95.4098 30.5033C94.9792 30.6023 94.5288 30.6518 94.0685 30.6518L94.0735 30.6567Z" fill="#31363C"/>
<path d="M102.226 30.5666C101.959 30.626 101.696 30.6606 101.439 30.6606C101.102 30.6606 100.81 30.6112 100.573 30.5122C100.33 30.4132 100.137 30.2845 99.9838 30.1162C99.8304 29.9529 99.7215 29.7648 99.6522 29.5569C99.5829 29.3491 99.5433 29.1313 99.5433 28.9086V24.5927H98.7168V23.5879H99.5433V22.1328H100.731V23.5879H102.736V24.5927H100.731V28.7749C100.731 29.0719 100.805 29.2847 100.954 29.4183C101.102 29.552 101.315 29.6213 101.602 29.6213C101.78 29.6213 101.959 29.5965 102.142 29.547C102.325 29.4975 102.493 29.4282 102.642 29.3392L102.845 30.3439C102.701 30.433 102.498 30.5072 102.231 30.5666H102.226Z" fill="#31363C"/>
<path d="M107.14 30.6565C106.669 30.6565 106.224 30.5773 105.818 30.4139C105.407 30.2556 105.056 30.018 104.754 29.7111C104.457 29.4043 104.22 29.0281 104.051 28.5827C103.883 28.1372 103.799 27.6274 103.799 27.0484C103.799 26.4693 103.883 25.9694 104.051 25.519C104.22 25.0686 104.452 24.6924 104.754 24.3905C105.051 24.0886 105.407 23.856 105.818 23.6976C106.229 23.5392 106.669 23.4551 107.14 23.4551C107.61 23.4551 108.065 23.5343 108.476 23.6976C108.887 23.856 109.238 24.0886 109.54 24.3905C109.837 24.6924 110.075 25.0686 110.248 25.519C110.421 25.9694 110.51 26.4792 110.51 27.0484C110.51 27.6175 110.426 28.1422 110.248 28.5827C110.075 29.0281 109.837 29.4043 109.54 29.7111C109.243 30.018 108.887 30.2506 108.476 30.4139C108.065 30.5723 107.62 30.6565 107.14 30.6565ZM107.14 29.6121C107.451 29.6121 107.739 29.5626 108.006 29.4587C108.273 29.3548 108.501 29.2013 108.694 28.9885C108.887 28.7806 109.035 28.5134 109.149 28.1917C109.258 27.87 109.317 27.4888 109.317 27.0533C109.317 26.6178 109.263 26.2366 109.149 25.9149C109.035 25.5932 108.887 25.326 108.694 25.1181C108.501 24.9102 108.273 24.7518 108.006 24.6479C107.739 24.544 107.451 24.4945 107.14 24.4945C106.828 24.4945 106.541 24.544 106.283 24.6479C106.026 24.7518 105.798 24.9053 105.61 25.1181C105.417 25.326 105.269 25.5932 105.165 25.9149C105.056 26.2366 105.006 26.6178 105.006 27.0533C105.006 27.4888 105.061 27.87 105.165 28.1917C105.269 28.5134 105.422 28.7806 105.61 28.9885C105.803 29.1964 106.026 29.3548 106.283 29.4587C106.541 29.5626 106.828 29.6121 107.14 29.6121Z" fill="#31363C"/>
<path d="M114.149 25.1428C113.743 25.3507 113.441 25.6774 113.248 26.1129V30.5228H112.07V23.5887H113.115L113.224 25.0983H113.248C113.446 24.6875 113.728 24.3311 114.095 24.0243C114.466 23.7174 114.936 23.5293 115.505 23.4551V24.7667C115.005 24.8112 114.555 24.9399 114.149 25.1478V25.1428Z" fill="#31363C"/>
<path d="M122.414 29.9397C122.315 30.009 122.192 30.0882 122.048 30.1674C121.9 30.2466 121.726 30.3258 121.518 30.4C121.316 30.4743 121.078 30.5386 120.816 30.5881C120.553 30.6376 120.261 30.6623 119.94 30.6623C118.772 30.6623 117.886 30.3456 117.282 29.712C116.678 29.0785 116.371 28.1926 116.371 27.0542C116.371 26.4949 116.455 25.9901 116.619 25.5446C116.782 25.0992 117.015 24.723 117.307 24.4162C117.599 24.1093 117.95 23.8717 118.356 23.7084C118.762 23.5451 119.202 23.4609 119.672 23.4609C120.143 23.4609 120.603 23.5451 120.994 23.7134C121.385 23.8816 121.707 24.1341 121.964 24.4657C122.216 24.7973 122.39 25.2081 122.484 25.6931C122.578 26.1782 122.573 26.7473 122.479 27.3908H117.589C117.633 28.1381 117.861 28.6974 118.272 29.0686C118.682 29.4398 119.262 29.623 120.009 29.623C120.499 29.623 120.915 29.5438 121.251 29.3903C121.588 29.2369 121.875 29.0785 122.107 28.9152L122.414 29.9496V29.9397ZM119.648 24.4954C119.133 24.4954 118.687 24.6537 118.326 24.9606C117.96 25.2724 117.727 25.7426 117.633 26.3761H121.36C121.38 26.0544 121.345 25.7773 121.266 25.5397C121.187 25.3021 121.068 25.1091 120.92 24.9507C120.766 24.7973 120.583 24.6785 120.365 24.6043C120.147 24.53 119.91 24.4904 119.653 24.4904L119.648 24.4954Z" fill="#31363C"/>
</svg>
