<svg width="26" height="26" viewBox="0 0 26 26" fill="none" xmlns="http://www.w3.org/2000/svg">
<path d="M25.1255 18.5593C25.7466 19.181 26.0626 20.0442 25.9897 20.9198C25.9168 21.7955 25.4624 22.5948 24.7473 23.1051C21.7284 25.2491 18.048 26.2552 14.3584 25.9448C10.6688 25.6345 7.208 24.0281 4.59019 21.4098C1.97237 18.7916 0.365262 15.3308 0.0551609 11.6418C-0.25516 7.9521 0.750915 4.27157 2.89495 1.25291C3.40547 0.537767 4.2047 0.0836702 5.0802 0.010769C5.95587 -0.0619124 6.81902 0.254134 7.44052 0.874984L9.42184 2.85629C10.1546 3.59297 10.4535 4.65655 10.2116 5.66702L9.31105 9.37804C9.27361 9.53287 9.19432 9.67405 9.08156 9.78637L7.24165 11.6263V11.6265C8.78928 14.7097 11.2905 17.2109 14.374 18.7587L16.2139 16.9188V16.9186C16.3264 16.8061 16.4678 16.7266 16.6226 16.6894L20.3337 15.7888H20.3339C21.3442 15.5472 22.4077 15.846 23.1445 16.5786L25.1255 18.5593ZM14.7252 1.73452C17.2545 1.73738 19.6794 2.74347 21.468 4.53177C23.2563 6.32036 24.2624 8.74516 24.2652 11.2744C24.2652 11.5843 24.4306 11.8706 24.6989 12.0257C24.9672 12.1805 25.2977 12.1805 25.5662 12.0257C25.8345 11.8706 25.9999 11.5843 25.9999 11.2744C25.9964 8.28531 24.8075 5.41978 22.6938 3.30604C20.5802 1.19241 17.7144 0.00355203 14.7253 0C14.4155 0 14.1292 0.165401 13.9741 0.433653C13.8193 0.702124 13.8193 1.03271 13.9741 1.30097C14.1292 1.56944 14.4155 1.73462 14.7253 1.73462L14.7252 1.73452ZM13.8579 6.07082C15.4675 6.0728 17.0105 6.71306 18.1487 7.85101C19.2867 8.98924 19.9269 10.5322 19.9289 12.1418C19.9289 12.4516 20.0941 12.7379 20.3626 12.8928C20.6308 13.0478 20.9614 13.0478 21.2299 12.8928C21.4981 12.7379 21.6633 12.4516 21.6633 12.1418C21.6611 10.0724 20.8381 8.08843 19.3745 6.62516C17.9113 5.16189 15.9273 4.33861 13.8579 4.33641C13.548 4.33641 13.2617 4.50159 13.1069 4.77006C12.9519 5.03832 12.9519 5.36889 13.1069 5.63716C13.2617 5.90563 13.548 6.07081 13.8579 6.07081L13.8579 6.07082ZM12.9906 10.4073C13.6804 10.408 14.3418 10.6824 14.8296 11.17C15.3172 11.6578 15.5917 12.3192 15.5925 13.009C15.5925 13.3189 15.7577 13.6052 16.0259 13.76C16.2944 13.9151 16.625 13.9151 16.8933 13.76C17.1617 13.6052 17.3269 13.3189 17.3269 13.009C17.3256 11.8593 16.8684 10.7572 16.0555 9.94417C15.2423 9.13126 14.1402 8.67406 12.9906 8.67271C12.6807 8.67271 12.3944 8.83789 12.2396 9.10636C12.0845 9.37462 12.0845 9.70519 12.2396 9.97368C12.3944 10.2419 12.6807 10.4073 12.9906 10.4073L12.9906 10.4073Z" fill="#EAEAEA"/>
</svg>
