<svg width="32" height="32" viewBox="0 0 32 32" fill="none" xmlns="http://www.w3.org/2000/svg">
<path d="M32 16.0002C32 14.3364 30.496 13.3381 29.2959 12.5894C28.6161 12.1899 28.3364 11.3545 28.6495 10.6307C28.6622 10.6013 28.6751 10.5719 28.6882 10.5426C29.2161 9.21138 29.8882 7.5643 28.9442 6.21643C28.0003 4.86885 26.2723 5.0017 24.8803 5.13483C24.0722 5.19387 23.3963 4.63951 23.2074 3.85159C23.2049 3.84113 23.2025 3.8308 23.2 3.82061C22.896 2.40643 22.4961 0.642691 20.9441 0.126776C19.3922 -0.389096 18.1442 0.775794 17.1041 1.70754C17.0916 1.72051 17.079 1.73345 17.0664 1.74635C16.4731 2.3537 15.5134 2.3735 14.8959 1.79082C13.8558 0.859111 12.5599 -0.305495 11.0559 0.210064C9.5518 0.725936 9.10396 2.45627 8.79998 3.87046C8.79752 3.88072 8.79502 3.89113 8.7925 3.90167C8.60366 4.68952 7.92796 5.2445 7.11999 5.18495C5.72792 5.05181 4.01603 4.90223 3.05603 6.26656C2.09603 7.63088 2.78416 9.2615 3.3121 10.5927C3.32518 10.622 3.3381 10.6514 3.35085 10.6809C3.66383 11.4045 3.38378 12.2398 2.70405 12.6392C1.50405 13.3381 0 14.3364 0 16.0002C0 17.664 1.50405 18.6623 2.70405 19.411C3.38392 19.8105 3.66359 20.6459 3.35054 21.3697C3.3378 21.3991 3.3249 21.4285 3.31184 21.4578C2.78389 22.789 2.11183 24.4361 3.05576 25.784C3.99972 27.1316 5.72765 26.9987 7.11973 26.8656C7.9278 26.8065 8.60372 27.3609 8.79255 28.1488C8.79506 28.1593 8.79754 28.1696 8.79998 28.1798C9.104 29.594 9.50394 31.3577 11.0559 31.8736C12.6078 32.3895 13.8558 31.2246 14.8959 30.2099C15.5185 29.6224 16.4815 29.6221 17.1041 30.2096C17.7428 30.9232 18.5527 31.439 19.4438 31.7086C19.9324 31.8564 20.4611 31.9055 20.9441 31.7405C22.5441 31.2246 22.896 29.4611 23.2 28.0467C23.2025 28.0364 23.205 28.026 23.2075 28.0154C23.3963 27.2277 24.0721 26.6731 24.88 26.7322C26.2721 26.8653 27.984 27.0149 28.944 25.6506C29.904 24.2862 29.2158 22.6556 28.6879 21.3244C28.6749 21.2952 28.662 21.2659 28.6493 21.2366C28.3362 20.5129 28.6161 19.6774 29.2959 19.2779C30.496 18.6623 32 17.664 32 16.0002ZM22.0482 12.8721L15.6483 21.1917C15.3678 21.5627 14.9492 21.7925 14.4962 21.824H14.4003C13.975 21.8265 13.5662 21.6529 13.2644 21.3412L10.0643 18.0134C9.65846 17.5914 9.49989 16.9764 9.64855 16.3998C9.79695 15.8235 10.2301 15.3731 10.7845 15.2185C11.3387 15.0642 11.9304 15.2288 12.3362 15.6511C13.3557 16.7111 15.0791 16.6165 15.9766 15.4514L19.5523 10.809C19.9225 10.4012 20.4654 10.2149 20.9963 10.3132C21.5275 10.4116 21.975 10.7815 22.1869 11.2974C22.3991 11.8129 22.3469 12.405 22.0482 12.8721Z" fill="#34383C"/>
</svg>
