<svg width="57" height="57" viewBox="0 0 57 57" fill="none" xmlns="http://www.w3.org/2000/svg">
<g filter="url(#filter0_d_3622_93256)">
<circle cx="25" cy="25" r="21" fill="#7D7D7D"/>
</g>
<path d="M35.2529 17.713L35.2529 17.7131C37.2955 19.3294 38.3516 21.4346 38.4154 24.0079L38.4154 24.0083C38.4437 25.1219 37.9838 26.1244 37.5331 26.9374C36.499 28.8026 35.0768 30.3113 33.7882 31.5684L33.788 31.5685C31.5242 33.7789 28.8153 35.9546 25.5001 38.2204L25.5 38.2203L25.4897 38.2276C25.3652 38.3167 25.2163 38.416 25.0014 38.416C24.8618 38.416 24.7191 38.375 24.5692 38.274C20.8362 35.7164 17.9885 33.3887 15.5902 30.9461L15.5898 30.9457C14.2902 29.6248 13.2883 28.3505 12.5199 27.0502L12.5198 27.05C11.8289 25.8821 11.527 24.6945 11.5919 23.4851C11.6571 22.2712 12.0939 20.9982 12.9385 19.6698C14.1097 17.8312 15.7652 16.7224 17.8886 16.3532L17.8888 16.3532C20.4408 15.9085 23.008 16.9189 24.5438 18.8745L25.0044 19.4611L25.4627 18.8728C25.6605 18.6189 25.8715 18.3847 26.0975 18.1663L26.0977 18.1661C27.3459 16.9586 29.117 16.2555 30.955 16.2555C32.5443 16.2555 34.0705 16.777 35.2529 17.713Z" stroke="white" stroke-width="1.16667"/>
<defs>
<filter id="filter0_d_3622_93256" x="0.441667" y="0.441667" width="56.2333" height="56.2333" filterUnits="userSpaceOnUse" color-interpolation-filters="sRGB">
<feFlood flood-opacity="0" result="BackgroundImageFix"/>
<feColorMatrix in="SourceAlpha" type="matrix" values="0 0 0 0 0 0 0 0 0 0 0 0 0 0 0 0 0 0 127 0" result="hardAlpha"/>
<feOffset dx="3.55833" dy="3.55833"/>
<feGaussianBlur stdDeviation="3.55833"/>
<feComposite in2="hardAlpha" operator="out"/>
<feColorMatrix type="matrix" values="0 0 0 0 0 0 0 0 0 0 0 0 0 0 0 0 0 0 0.25 0"/>
<feBlend mode="normal" in2="BackgroundImageFix" result="effect1_dropShadow_3622_93256"/>
<feBlend mode="normal" in="SourceGraphic" in2="effect1_dropShadow_3622_93256" result="shape"/>
</filter>
</defs>
</svg>
