<svg width="59" height="58" viewBox="0 0 59 58" fill="none" xmlns="http://www.w3.org/2000/svg">
<g filter="url(#filter0_d_2679_9004)">
<path d="M51 29C51 42.2548 40.2548 53 27 53C13.7452 53 3 42.2548 3 29C3 15.7452 13.7452 5 27 5C40.2548 5 51 15.7452 51 29Z" fill="#424242"/>
<path d="M50.0982 29C50.0982 41.7568 39.7568 52.0982 27 52.0982C14.2432 52.0982 3.90175 41.7568 3.90175 29C3.90175 16.2432 14.2432 5.90175 27 5.90175C39.7568 5.90175 50.0982 16.2432 50.0982 29Z" stroke="white" stroke-width="1.80351"/>
</g>
<path fill-rule="evenodd" clip-rule="evenodd" d="M15.0003 37.4C13.4003 37.4 13.4003 35 15.0003 35C16.3258 35 17.4003 33.9255 17.4003 32.6V26.6C17.4003 21.2981 21.6984 17 27.0003 17C32.3022 17 36.6003 21.2981 36.6003 26.6V32.6C36.6003 33.9255 37.6748 35 39.0003 35C40.6003 35 40.6003 37.4 39.0003 37.4H15.0003ZM34.2001 32.6V26.6C34.2001 22.6236 30.9765 19.4 27.0001 19.4C23.0236 19.4 19.8001 22.6236 19.8001 26.6V32.6C19.8001 33.4743 19.5663 34.294 19.1579 35H34.8422C34.4338 34.294 34.2001 33.4743 34.2001 32.6ZM27.0003 43.3958C28.2838 43.3958 29.4703 42.7124 30.1143 41.6021C30.5784 40.8021 30.0011 39.8 29.0763 39.8H24.9243C23.9994 39.8 23.4222 40.8021 23.8863 41.6021C24.5303 42.7124 25.7168 43.3958 27.0003 43.3958Z" fill="#F5F5F5"/>
<defs>
<filter id="filter0_d_2679_9004" x="0.6" y="0.2" width="57.6" height="57.6" filterUnits="userSpaceOnUse" color-interpolation-filters="sRGB">
<feFlood flood-opacity="0" result="BackgroundImageFix"/>
<feColorMatrix in="SourceAlpha" type="matrix" values="0 0 0 0 0 0 0 0 0 0 0 0 0 0 0 0 0 0 127 0" result="hardAlpha"/>
<feOffset dx="2.4"/>
<feGaussianBlur stdDeviation="2.4"/>
<feComposite in2="hardAlpha" operator="out"/>
<feColorMatrix type="matrix" values="0 0 0 0 0 0 0 0 0 0 0 0 0 0 0 0 0 0 0.25 0"/>
<feBlend mode="normal" in2="BackgroundImageFix" result="effect1_dropShadow_2679_9004"/>
<feBlend mode="normal" in="SourceGraphic" in2="effect1_dropShadow_2679_9004" result="shape"/>
</filter>
</defs>
</svg>
