<svg width="32" height="32" viewBox="0 0 32 32" fill="none" xmlns="http://www.w3.org/2000/svg">
<circle cx="16" cy="16" r="16" fill="#7D7D7D"/>
<path d="M11.1727 9.37277C10.6757 8.87574 9.8698 8.87574 9.37277 9.37277C8.87574 9.8698 8.87574 10.6757 9.37277 11.1727L14.2001 16L9.37277 20.8273C8.87574 21.3243 8.87574 22.1302 9.37277 22.6272C9.8698 23.1243 10.6756 23.1243 11.1727 22.6272L16 17.7999L20.8273 22.6272C21.3244 23.1243 22.1302 23.1243 22.6272 22.6272C23.1243 22.1302 23.1243 21.3244 22.6272 20.8273L17.7999 16L22.6272 11.1727C23.1243 10.6757 23.1243 9.8698 22.6272 9.37277C22.1302 8.87574 21.3244 8.87574 20.8273 9.37277L16 14.2001L11.1727 9.37277Z" fill="#C6C6C6"/>
</svg>
