<svg width="111" height="61" viewBox="0 0 111 61" fill="none" xmlns="http://www.w3.org/2000/svg">
<path d="M109.567 58.8521H104.3V32.4008H104.501C104.976 32.4008 105.362 32.0154 105.362 31.5398C105.362 31.0823 105 30.7079 104.544 30.6929C104.624 30.2173 104.624 29.7328 104.544 29.2573C104.404 28.3032 103.886 27.4452 103.108 26.8746L100.181 24.6221V23.5168C100.181 23.0413 99.7956 22.6559 99.3191 22.6559C98.8436 22.6559 98.4581 23.0413 98.4581 23.5168V24.6361L95.6741 26.8315C94.8902 27.3962 94.3717 28.2571 94.2395 29.2142C94.1494 29.6887 94.1494 30.1753 94.2395 30.6498H94.0383C93.5627 30.6498 93.1773 31.0352 93.1773 31.5108C93.1773 31.9863 93.5627 32.3717 94.0383 32.3717H94.4978V36.8206H82.1692V32.3717H82.3844C82.8599 32.3717 83.2454 31.9863 83.2454 31.5108C83.2383 31.0513 82.8719 30.6788 82.4134 30.6638C82.4935 30.1893 82.4935 29.7038 82.4134 29.2282C82.2683 28.2762 81.7527 27.4192 80.9778 26.8466L78.0505 24.6221V23.5168C78.0505 23.0413 77.6641 22.6559 77.1885 22.6559C76.713 22.6559 76.3276 23.0413 76.3276 23.5168V24.6361L73.5435 26.8315C72.7597 27.3962 72.2411 28.2571 72.1079 29.2142C72.0188 29.6887 72.0188 30.1753 72.1079 30.6498H71.8927C71.4172 30.6498 71.0317 31.0352 71.0317 31.5108C71.0317 31.9863 71.4172 32.3717 71.8927 32.3717H72.3522V33.7062H72.0509L68.2906 31.0944V30.9943V28.8839C68.3087 27.4624 67.2835 26.2411 65.88 26.0138C65.901 25.9197 65.901 25.8216 65.88 25.7275V21.5508C66.0992 21.5388 66.3055 21.4407 66.4536 21.2775C67.8412 19.7097 68.4619 17.6075 68.1475 15.5372C68.0084 14.6302 67.696 13.7582 67.2285 12.9684V12.8393V9.96914C67.2325 9.73888 67.1434 9.51764 66.9812 9.35546C66.818 9.19328 66.5968 9.10418 66.3675 9.10718C65.892 9.10718 65.5066 9.49361 65.5066 9.96915V11.0744V11.0734C65.2943 10.9042 65.0741 10.746 64.8458 10.5998L58.4738 6.45211V2.8641C58.4658 1.37144 57.2544 0.166182 55.7618 0.166182H55.4745C54.7527 0.158173 54.0579 0.439484 53.5433 0.945059C53.0287 1.45163 52.7374 2.1424 52.7334 2.86421V6.45221L46.1309 10.5277C45.9017 10.6858 45.6714 10.843 45.4562 11.0152V9.89595V9.89695C45.4562 9.42141 45.0708 9.03599 44.5952 9.03599C44.1197 9.03599 43.7343 9.42141 43.7343 9.89695V12.7671C43.7273 12.8101 43.7273 12.8532 43.7343 12.8962C43.2617 13.6841 42.9504 14.5571 42.8162 15.465C42.5009 17.5353 43.1216 19.6386 44.5091 21.2063C44.6573 21.3695 44.8635 21.4676 45.0838 21.4786V25.6843C45.0618 25.7784 45.0618 25.8765 45.0838 25.9706C43.6852 26.2049 42.6671 27.4242 42.6871 28.8407V30.9791V31.0793L38.9269 33.6911H38.6255V32.3566H38.8408V32.3576C39.3163 32.3576 39.7017 31.9722 39.7017 31.4966C39.6937 31.0371 39.3283 30.6647 38.8688 30.6497C38.9569 30.1751 38.9569 29.6886 38.8688 29.2141C38.7247 28.262 38.2081 27.405 37.4342 26.8314L34.6209 24.6219V23.5167C34.6209 23.0411 34.2355 22.6557 33.76 22.6557C33.2844 22.6557 32.898 23.0411 32.898 23.5167V24.6359L30.114 26.8314C29.3351 27.401 28.8175 28.259 28.6794 29.2141C28.5893 29.6886 28.5893 30.1751 28.6794 30.6497H28.4641C27.9886 30.6497 27.6022 31.0351 27.6022 31.5106C27.6022 31.9862 27.9886 32.3716 28.4641 32.3716H28.9236V36.8205H16.6089V32.3716H16.9392C17.4148 32.3716 17.8002 31.9862 17.8002 31.5106C17.8002 31.0351 17.4148 30.6497 16.9392 30.6497H16.8531C16.9422 30.1751 16.9422 29.6886 16.8531 29.2141C16.714 28.259 16.1974 27.401 15.4175 26.8314L12.5474 24.6219V23.5167C12.5474 23.0411 12.1619 22.6557 11.6864 22.6557C11.2109 22.6557 10.8254 23.0411 10.8254 23.5167V24.6359L8.02629 26.8314C7.25243 27.405 6.73583 28.262 6.59167 29.2141C6.50858 29.6886 6.50858 30.1741 6.59167 30.6497H6.50558C6.02904 30.6497 5.64361 31.0351 5.64361 31.5106C5.64361 31.9862 6.02904 32.3716 6.50558 32.3716H6.83595L6.83495 58.8511H1.64003C1.39376 58.819 1.14648 58.8941 0.960287 59.0583C0.77408 59.2215 0.667969 59.4578 0.667969 59.705C0.667969 59.9523 0.774085 60.1885 0.960287 60.3517C1.14649 60.5159 1.39377 60.591 1.64003 60.559H109.567C109.813 60.591 110.061 60.5159 110.247 60.3517C110.433 60.1885 110.539 59.9523 110.539 59.705C110.539 59.4577 110.433 59.2215 110.247 59.0583C110.061 58.8941 109.813 58.819 109.567 58.8511L109.567 58.8521ZM23.657 55.6223V53.47C23.657 52.9944 23.2716 52.609 22.796 52.609C22.3205 52.609 21.9351 52.9944 21.9351 53.47V55.6223H16.6102V49.882H29.0391V55.6223H23.657ZM12.6208 55.6223V53.47C12.6208 52.9944 12.2354 52.609 11.7599 52.609C11.2833 52.609 10.8979 52.9944 10.8979 53.47V55.6223H8.63035V49.882H14.8873V55.6223H12.6208ZM39.3156 35.53H52.9359C52.9139 35.7253 52.9139 35.9225 52.9359 36.1187V36.9226H37.4495V35.53H39.3156ZM73.7604 35.53V36.9656H58.3612V36.1618C58.3542 35.9625 58.3252 35.7653 58.2741 35.5731H73.7743L73.7604 35.53ZM99.4351 52.7522C98.9596 52.7522 98.5742 53.1376 98.5742 53.6132V55.6224H96.3206V49.8821H102.578V55.6224H100.311V53.47C100.311 53.2417 100.22 53.0225 100.059 52.8613C99.8966 52.6991 99.6784 52.609 99.4491 52.609L99.4351 52.7522ZM89.2739 55.6223V53.47C89.2739 52.9944 88.8885 52.609 88.4129 52.609C87.9374 52.609 87.552 52.9944 87.552 53.47V55.6223H82.17V49.882H94.5988V55.6223H89.2739ZM77.1324 55.6223H74.2622V49.882H80.5192V55.6223H77.1324ZM47.7825 38.5724V40.9981H41.912V38.5724H47.7825ZM50.954 38.5724V52.4649H49.5184L49.5194 38.5724H50.954ZM53.7242 38.5724H58.5465V40.9981H52.7339V38.5724H53.7242ZM61.718 38.5724V52.4649H60.2824L60.2834 38.5724H61.718ZM69.3105 38.5724V40.9981H63.44V38.5724H69.3105ZM72.468 38.5724V52.4649H71.0323V38.5724H72.468ZM38.7407 54.1879H72.468V55.6235L38.7407 55.6225V54.1879ZM47.7827 45.304H41.9123V42.706H47.7817L47.7827 45.304ZM41.9123 47.0119H47.7817L47.7827 52.4649H41.9122L41.9123 47.0119ZM58.5457 45.29L52.7342 45.289V42.7061H58.6037L58.5457 45.29ZM52.7342 47.0119H58.6037V52.4649H52.7342V47.0119ZM69.3677 45.29L63.44 45.289V42.7061H69.3095L69.3677 45.29ZM63.44 47.0119H69.3095L69.3105 52.4649H63.44L63.44 47.0119ZM40.19 52.4649H38.7544L38.7554 38.5724H40.191L40.19 52.4649ZM96.3218 32.4446H102.579V41.0564L96.3218 41.0554V32.4446ZM102.58 42.7061V48.2603H96.3218V42.7061H102.58ZM94.5998 48.2603H82.171V42.7061H94.5998V48.2603ZM80.449 48.2603H74.263V42.7061H80.52L80.449 48.2603ZM56.6385 36.0467V36.8506H54.5862V36.0467C54.7193 35.356 55.0717 34.7273 55.5913 34.2527C56.1229 34.7232 56.4903 35.352 56.6385 36.0467ZM37.0195 48.2744H30.7615V42.7061H37.0185L37.0195 48.2744ZM29.0395 48.2744H16.6107V42.7061H29.0395V48.2744ZM8.6307 42.7061H14.8877V48.2603H8.6307V42.7061ZM8.6307 32.4295H14.8877V41.0412H8.6307V32.4295ZM30.7615 49.9971H37.0185V55.7374H30.7615V49.9971ZM78.1232 57.3743H102.521V58.8099H78.1232V57.3743ZM95.9922 29.4725C96.0553 28.9739 96.3126 28.5194 96.709 28.2101L99.35 26.1438L102.22 28.2251V28.2241C102.611 28.5314 102.863 28.9799 102.924 29.4725C102.982 29.881 102.927 30.2984 102.766 30.6778H96.1495C95.9883 30.2984 95.9333 29.8809 95.9923 29.4725H95.9922ZM94.5566 38.5717V40.9974H82.1708V38.5717H94.5566ZM73.8605 29.4725C73.9295 28.9719 74.1918 28.5184 74.5933 28.2101L77.2192 26.1438L80.0893 28.2251V28.2241C80.4758 28.5324 80.723 28.9819 80.7781 29.4725C80.8412 29.8799 80.7911 30.2974 80.635 30.6778H74.0325C73.8663 30.2994 73.8073 29.8829 73.8603 29.4725H73.8605ZM74.2629 32.4439H80.5199V41.0556L74.2629 41.0546V38.5718H74.7074C75.1829 38.5718 75.5684 38.1864 75.5684 37.7109V34.5965C75.5684 34.1209 75.1829 33.7355 74.7074 33.7355H74.2629V32.4439ZM60.7149 23.1586V23.1576C60.2393 23.1576 59.8529 23.543 59.8529 24.0196V25.9998H56.4661V24.0476C56.4661 23.5721 56.0806 23.1867 55.6051 23.1867C55.1296 23.1867 54.7441 23.5721 54.7441 24.0476V26.0278L51.4283 26.0288V24.0476C51.4283 23.5721 51.0429 23.1867 50.5673 23.1867C50.0918 23.1867 49.7064 23.5721 49.7064 24.0476V26.0278H46.8362V26.0288C46.8432 25.9468 46.8432 25.8657 46.8362 25.7846V21.5648H64.3598V25.7556C64.3528 25.8367 64.3528 25.9188 64.3598 25.9999H61.4896V24.0477C61.4966 23.8174 61.4116 23.5932 61.2524 23.425C61.0932 23.2578 60.8739 23.1617 60.6427 23.1577L60.7149 23.1586ZM57.4992 7.88756L64.2168 11.9922C65.5643 12.8282 66.4763 14.2137 66.7135 15.7814C66.9288 17.223 66.5454 18.6908 65.6514 19.843H58.4754V18.049C58.4683 17.6596 58.3913 17.2762 58.2461 16.9148C57.8356 15.9036 57.0698 15.0767 56.0927 14.5902C55.8534 14.4941 55.5861 14.4941 55.3469 14.5902C54.3508 15.0567 53.5559 15.8666 53.1084 16.8717C52.9452 17.2631 52.8571 17.6826 52.8491 18.1061V19.9001H45.559C44.67 18.7458 44.2916 17.2791 44.5109 15.8385C44.7481 14.2707 45.6612 12.8853 47.0087 12.0493L53.6541 7.94461L57.4992 7.88756ZM54.6291 18.0488C54.6261 17.8526 54.6601 17.6574 54.7302 17.4741C54.9194 17.0266 55.2398 16.6472 55.6482 16.3839C56.0487 16.6552 56.367 17.0326 56.5672 17.4741C56.6303 17.6594 56.6643 17.8536 56.6673 18.0488V19.8428H54.586L54.6291 18.0488ZM55.7914 1.88868V1.88768C56.0517 1.88467 56.302 1.98578 56.4862 2.17C56.6704 2.3532 56.7715 2.60448 56.7675 2.86377V6.16447L54.486 6.16547V2.86374C54.482 2.60446 54.5831 2.35317 54.7673 2.16998C54.9515 1.98577 55.2018 1.88465 55.462 1.88765L55.7914 1.88868ZM44.5107 28.8833C44.5107 28.2416 45.0313 27.721 45.673 27.721H65.5372C66.181 27.721 66.7055 28.2395 66.7135 28.8833V30.1607H44.5107V28.8833ZM44.726 31.8826L66.4841 31.8836L69.139 33.7347H57.4129C57.0305 33.2501 56.603 32.8036 56.1354 32.4002C55.8191 32.1399 55.3626 32.1399 55.0452 32.4002C54.5807 32.8016 54.1573 33.2491 53.7818 33.7347H42.0708L44.726 31.8826ZM36.5879 33.7337L36.5889 33.7347C36.1133 33.7347 35.7279 34.1201 35.7279 34.5956V37.71C35.7279 38.1856 36.1133 38.571 36.5889 38.571H37.0193V40.9967H30.7613V32.385H37.0183V33.6764L36.5879 33.7337ZM30.4449 29.4278L30.4459 29.4288C30.503 28.9283 30.7623 28.4717 31.1637 28.1664L33.7896 26.1001L36.6598 28.1814V28.1804C37.0462 28.4888 37.2935 28.9383 37.3496 29.4288C37.4186 29.8363 37.3686 30.2547 37.2054 30.6341H30.603H30.604C30.4438 30.2697 30.3887 29.8663 30.4458 29.4718L30.4449 29.4278ZM29.0093 38.527V40.9527L16.6105 40.9537V38.571L29.0093 38.527ZM8.31525 29.4719C8.37232 28.9713 8.63161 28.5148 9.03306 28.2095L11.659 26.1432L14.5291 28.2245V28.2235C14.9155 28.5318 15.1628 28.9813 15.2179 29.4719C15.288 29.8793 15.2379 30.2978 15.0747 30.6772H8.47228H8.47328C8.30509 30.2998 8.25003 29.8803 8.3151 29.4719H8.31525ZM8.64563 57.3712H32.9008V58.8068H8.64563V57.3712ZM34.6228 58.8068V57.4573H76.4589V58.8068H34.6228Z" fill="black"/>
<path d="M11.758 44.7579C11.2774 44.7739 10.896 45.1674 10.896 45.6479C10.896 46.1235 11.2814 46.5089 11.758 46.5089C12.2335 46.5089 12.6189 46.1235 12.6189 45.6479C12.6309 45.4137 12.5448 45.1844 12.3817 45.0162C12.2185 44.847 11.9922 44.7539 11.758 44.7579L11.758 44.7579Z" fill="black"/>
<path d="M22.7941 46.5088C23.2696 46.5088 23.655 46.1234 23.655 45.6479C23.655 45.4206 23.5639 45.2034 23.4018 45.0442C23.2406 44.885 23.0213 44.7969 22.7941 44.8009C22.3135 44.8169 21.9321 45.2104 21.9331 45.6909C21.9561 46.1494 22.3346 46.5098 22.7941 46.5088L22.7941 46.5088Z" fill="black"/>
<path d="M33.7594 46.5088C34.235 46.5088 34.6204 46.1234 34.6204 45.6479C34.6204 45.4206 34.5293 45.2034 34.3671 45.0442C34.2049 44.885 33.9857 44.7969 33.7594 44.8009C33.2789 44.8169 32.8975 45.2104 32.8975 45.6909C32.9205 46.1494 33.2999 46.5098 33.7594 46.5088L33.7594 46.5088Z" fill="black"/>
<path d="M99.4495 46.5088C99.926 46.5088 100.311 46.1234 100.311 45.6479C100.311 45.4206 100.22 45.2034 100.058 45.0442C99.896 44.885 99.6767 44.7969 99.4495 44.8009C99.2182 44.8049 98.997 44.901 98.8348 45.0672C98.6736 45.2344 98.5845 45.4586 98.5885 45.6909C98.6115 46.1494 98.9909 46.5098 99.4495 46.5088L99.4495 46.5088Z" fill="black"/>
<path d="M88.4122 46.5088C88.8878 46.5088 89.2732 46.1234 89.2732 45.6479C89.2732 45.4206 89.1821 45.2034 89.0199 45.0442C88.8587 44.885 88.6395 44.7969 88.4122 44.8009C87.9317 44.8169 87.5513 45.2104 87.5513 45.6909C87.5743 46.1494 87.9527 46.5098 88.4122 46.5088L88.4122 46.5088Z" fill="black"/>
<path d="M77.3185 46.5088C77.794 46.5088 78.1804 46.1234 78.1804 45.6479C78.1804 45.4206 78.0883 45.2034 77.9272 45.0442C77.765 44.885 77.5457 44.7969 77.3185 44.8009C76.839 44.8169 76.4575 45.2104 76.4575 45.6909C76.4805 46.1494 76.86 46.5098 77.3185 46.5088V46.5088Z" fill="black"/>
<path d="M34.6204 52.8802C34.6204 52.653 34.5293 52.4357 34.3671 52.2765C34.2049 52.1174 33.9857 52.0303 33.7594 52.0333C33.2789 52.0493 32.8975 52.4427 32.8975 52.9233C32.8975 53.3988 33.2839 53.7842 33.7594 53.7842C33.9947 53.7852 34.221 53.6881 34.3841 53.5169C34.5463 53.3468 34.6324 53.1165 34.6204 52.8802V52.8802Z" fill="black"/>
<path d="M77.3185 51.9903C76.839 52.0064 76.4575 52.3998 76.4575 52.8803C76.4575 53.3559 76.8429 53.7413 77.3185 53.7413C77.794 53.7413 78.1805 53.3559 78.1805 52.8803C78.1915 52.6461 78.1064 52.4168 77.9432 52.2486C77.78 52.0795 77.5538 51.9864 77.3185 51.9904V51.9903Z" fill="black"/>
<path d="M11.758 34.84C11.5307 34.836 11.3115 34.9231 11.1493 35.0822C10.9871 35.2424 10.896 35.4597 10.896 35.6869V37.7532C10.896 38.2288 11.2814 38.6142 11.758 38.6142C12.2335 38.6142 12.6189 38.2288 12.6189 37.7532V35.6869C12.6189 35.4597 12.5278 35.2424 12.3656 35.0822C12.2035 34.9231 11.9842 34.836 11.758 34.84H11.758Z" fill="black"/>
<path d="M33.8883 34.84C33.6611 34.836 33.4418 34.9231 33.2796 35.0822C33.1185 35.2424 33.0264 35.4597 33.0264 35.6869V37.7532C33.0264 38.2288 33.4128 38.6142 33.8883 38.6142C34.3639 38.6142 34.7493 38.2288 34.7493 37.7532V35.6869C34.7493 35.4597 34.6582 35.2424 34.496 35.0822C34.3338 34.9231 34.1146 34.836 33.8883 34.84H33.8883Z" fill="black"/>
<path d="M77.3185 38.6164C77.794 38.6164 78.1804 38.2309 78.1804 37.7554V35.6891C78.1804 35.2136 77.794 34.8281 77.3185 34.8281C76.8429 34.8281 76.4575 35.2136 76.4575 35.6891V37.7554C76.4575 37.9837 76.5486 38.2029 76.7098 38.3641C76.871 38.5263 77.0902 38.6164 77.3185 38.6164L77.3185 38.6164Z" fill="black"/>
<path d="M99.4493 34.84C99.2231 34.836 99.0038 34.9231 98.8417 35.0822C98.6795 35.2424 98.5884 35.4597 98.5884 35.6869V37.7532C98.5884 38.2288 98.9738 38.6142 99.4493 38.6142C99.9259 38.6142 100.311 38.2288 100.311 37.7532V35.6869C100.311 35.4597 100.22 35.2424 100.058 35.0822C99.8958 34.9231 99.6766 34.836 99.4493 34.84V34.84Z" fill="black"/>
</svg>
